ISO-10303-21;
HEADER;
FILE_DESCRIPTION((''),'2;1');
FILE_NAME('901200761','2014-01-20T',('me'),(''),
'PRO/ENGINEER BY PARAMETRIC TECHNOLOGY CORPORATION, 2011490',
'PRO/ENGINEER BY PARAMETRIC TECHNOLOGY CORPORATION, 2011490','');
FILE_SCHEMA(('CONFIG_CONTROL_DESIGN'));
ENDSEC;
DATA;
#1=DIRECTION('',(0.E0,0.E0,-1.E0));
#2=VECTOR('',#1,1.5E0);
#3=CARTESIAN_POINT('',(-1.27E0,1.E0,7.5E-1));
#4=LINE('',#3,#2);
#5=DIRECTION('',(4.472135955E-1,0.E0,-8.944271909999E-1));
#6=VECTOR('',#5,5.590169943749E-1);
#7=CARTESIAN_POINT('',(-1.27E0,1.E0,-7.5E-1));
#8=LINE('',#7,#6);
#9=DIRECTION('',(1.E0,0.E0,0.E0));
#10=VECTOR('',#9,2.04E0);
#11=CARTESIAN_POINT('',(-1.02E0,1.E0,-1.25E0));
#12=LINE('',#11,#10);
#13=DIRECTION('',(4.472135955E-1,0.E0,8.944271909999E-1));
#14=VECTOR('',#13,5.590169943749E-1);
#15=CARTESIAN_POINT('',(1.02E0,1.E0,-1.25E0));
#16=LINE('',#15,#14);
#17=DIRECTION('',(0.E0,0.E0,1.E0));
#18=VECTOR('',#17,1.5E0);
#19=CARTESIAN_POINT('',(1.27E0,1.E0,-7.5E-1));
#20=LINE('',#19,#18);
#21=DIRECTION('',(-4.472135955E-1,0.E0,8.944271909999E-1));
#22=VECTOR('',#21,5.590169943749E-1);
#23=CARTESIAN_POINT('',(1.27E0,1.E0,7.5E-1));
#24=LINE('',#23,#22);
#25=DIRECTION('',(-1.E0,0.E0,0.E0));
#26=VECTOR('',#25,2.04E0);
#27=CARTESIAN_POINT('',(1.02E0,1.E0,1.25E0));
#28=LINE('',#27,#26);
#29=DIRECTION('',(-4.472135955E-1,0.E0,-8.944271909999E-1));
#30=VECTOR('',#29,5.590169943749E-1);
#31=CARTESIAN_POINT('',(-1.02E0,1.E0,1.25E0));
#32=LINE('',#31,#30);
#33=DIRECTION('',(-1.E0,0.E0,0.E0));
#34=VECTOR('',#33,6.35E-1);
#35=CARTESIAN_POINT('',(8.15E-1,1.E0,-1.2E0));
#36=LINE('',#35,#34);
#37=DIRECTION('',(5.E-1,0.E0,8.660254037844E-1));
#38=VECTOR('',#37,5.773502691896E-1);
#39=CARTESIAN_POINT('',(1.8E-1,1.E0,-1.2E0));
#40=LINE('',#39,#38);
#41=DIRECTION('',(1.E0,0.E0,0.E0));
#42=VECTOR('',#41,6.35E-1);
#43=CARTESIAN_POINT('',(4.686751345948E-1,1.E0,-7.E-1));
#44=LINE('',#43,#42);
#45=DIRECTION('',(-5.E-1,0.E0,-8.660254037844E-1));
#46=VECTOR('',#45,5.773502691896E-1);
#47=CARTESIAN_POINT('',(1.103675134595E0,1.E0,-7.E-1));
#48=LINE('',#47,#46);
#49=DIRECTION('',(-5.E-1,0.E0,8.660254037844E-1));
#50=VECTOR('',#49,5.773502691896E-1);
#51=CARTESIAN_POINT('',(-8.15E-1,1.E0,-1.2E0));
#52=LINE('',#51,#50);
#53=DIRECTION('',(1.E0,0.E0,0.E0));
#54=VECTOR('',#53,6.35E-1);
#55=CARTESIAN_POINT('',(-1.103675134595E0,1.E0,-7.E-1));
#56=LINE('',#55,#54);
#57=DIRECTION('',(5.E-1,0.E0,-8.660254037844E-1));
#58=VECTOR('',#57,5.773502691896E-1);
#59=CARTESIAN_POINT('',(-4.686751345948E-1,1.E0,-7.E-1));
#60=LINE('',#59,#58);
#61=DIRECTION('',(-1.E0,0.E0,0.E0));
#62=VECTOR('',#61,6.35E-1);
#63=CARTESIAN_POINT('',(-1.8E-1,1.E0,-1.2E0));
#64=LINE('',#63,#62);
#65=DIRECTION('',(5.E-1,0.E0,-8.660254037844E-1));
#66=VECTOR('',#65,5.773502691896E-1);
#67=CARTESIAN_POINT('',(8.15E-1,1.E0,1.2E0));
#68=LINE('',#67,#66);
#69=DIRECTION('',(-1.E0,0.E0,0.E0));
#70=VECTOR('',#69,6.35E-1);
#71=CARTESIAN_POINT('',(1.103675134595E0,1.E0,7.E-1));
#72=LINE('',#71,#70);
#73=DIRECTION('',(-5.E-1,0.E0,8.660254037844E-1));
#74=VECTOR('',#73,5.773502691896E-1);
#75=CARTESIAN_POINT('',(4.686751345948E-1,1.E0,7.E-1));
#76=LINE('',#75,#74);
#77=DIRECTION('',(1.E0,0.E0,0.E0));
#78=VECTOR('',#77,6.35E-1);
#79=CARTESIAN_POINT('',(1.8E-1,1.E0,1.2E0));
#80=LINE('',#79,#78);
#81=DIRECTION('',(1.E0,0.E0,0.E0));
#82=VECTOR('',#81,6.35E-1);
#83=CARTESIAN_POINT('',(-8.15E-1,1.E0,1.2E0));
#84=LINE('',#83,#82);
#85=DIRECTION('',(-5.E-1,0.E0,-8.660254037844E-1));
#86=VECTOR('',#85,5.773502691896E-1);
#87=CARTESIAN_POINT('',(-1.8E-1,1.E0,1.2E0));
#88=LINE('',#87,#86);
#89=DIRECTION('',(-1.E0,0.E0,0.E0));
#90=VECTOR('',#89,6.35E-1);
#91=CARTESIAN_POINT('',(-4.686751345948E-1,1.E0,7.E-1));
#92=LINE('',#91,#90);
#93=DIRECTION('',(5.E-1,0.E0,8.660254037844E-1));
#94=VECTOR('',#93,5.773502691896E-1);
#95=CARTESIAN_POINT('',(-1.103675134595E0,1.E0,7.E-1));
#96=LINE('',#95,#94);
#97=DIRECTION('',(1.E0,0.E0,0.E0));
#98=VECTOR('',#97,6.5E-1);
#99=CARTESIAN_POINT('',(-3.25E-1,1.E0,-3.25E-1));
#100=LINE('',#99,#98);
#101=DIRECTION('',(0.E0,0.E0,1.E0));
#102=VECTOR('',#101,6.5E-1);
#103=CARTESIAN_POINT('',(-3.25E-1,1.E0,-3.25E-1));
#104=LINE('',#103,#102);
#105=DIRECTION('',(1.E0,0.E0,0.E0));
#106=VECTOR('',#105,6.5E-1);
#107=CARTESIAN_POINT('',(-3.25E-1,1.E0,3.25E-1));
#108=LINE('',#107,#106);
#109=DIRECTION('',(0.E0,0.E0,1.E0));
#110=VECTOR('',#109,6.5E-1);
#111=CARTESIAN_POINT('',(3.25E-1,1.E0,-3.25E-1));
#112=LINE('',#111,#110);
#113=DIRECTION('',(0.E0,-1.E0,0.E0));
#114=VECTOR('',#113,2.E0);
#115=CARTESIAN_POINT('',(-1.27E0,1.E0,7.5E-1));
#116=LINE('',#115,#114);
#117=DIRECTION('',(0.E0,-1.E0,0.E0));
#118=VECTOR('',#117,2.E0);
#119=CARTESIAN_POINT('',(-1.02E0,1.E0,1.25E0));
#120=LINE('',#119,#118);
#121=DIRECTION('',(0.E0,-1.E0,0.E0));
#122=VECTOR('',#121,2.E0);
#123=CARTESIAN_POINT('',(1.02E0,1.E0,1.25E0));
#124=LINE('',#123,#122);
#125=DIRECTION('',(0.E0,-1.E0,0.E0));
#126=VECTOR('',#125,2.E0);
#127=CARTESIAN_POINT('',(1.27E0,1.E0,7.5E-1));
#128=LINE('',#127,#126);
#129=DIRECTION('',(0.E0,-1.E0,0.E0));
#130=VECTOR('',#129,2.E0);
#131=CARTESIAN_POINT('',(1.27E0,1.E0,-7.5E-1));
#132=LINE('',#131,#130);
#133=DIRECTION('',(0.E0,-1.E0,0.E0));
#134=VECTOR('',#133,2.E0);
#135=CARTESIAN_POINT('',(1.02E0,1.E0,-1.25E0));
#136=LINE('',#135,#134);
#137=DIRECTION('',(0.E0,-1.E0,0.E0));
#138=VECTOR('',#137,2.E0);
#139=CARTESIAN_POINT('',(-1.02E0,1.E0,-1.25E0));
#140=LINE('',#139,#138);
#141=DIRECTION('',(0.E0,-1.E0,0.E0));
#142=VECTOR('',#141,2.E0);
#143=CARTESIAN_POINT('',(-1.27E0,1.E0,-7.5E-1));
#144=LINE('',#143,#142);
#145=DIRECTION('',(0.E0,0.E0,-1.E0));
#146=VECTOR('',#145,1.5E0);
#147=CARTESIAN_POINT('',(-1.27E0,-1.E0,7.5E-1));
#148=LINE('',#147,#146);
#149=DIRECTION('',(-4.472135955E-1,0.E0,-8.944271909999E-1));
#150=VECTOR('',#149,5.590169943749E-1);
#151=CARTESIAN_POINT('',(-1.02E0,-1.E0,1.25E0));
#152=LINE('',#151,#150);
#153=DIRECTION('',(-1.E0,0.E0,0.E0));
#154=VECTOR('',#153,2.04E0);
#155=CARTESIAN_POINT('',(1.02E0,-1.E0,1.25E0));
#156=LINE('',#155,#154);
#157=DIRECTION('',(-4.472135955E-1,0.E0,8.944271909999E-1));
#158=VECTOR('',#157,5.590169943749E-1);
#159=CARTESIAN_POINT('',(1.27E0,-1.E0,7.5E-1));
#160=LINE('',#159,#158);
#161=DIRECTION('',(0.E0,0.E0,1.E0));
#162=VECTOR('',#161,1.5E0);
#163=CARTESIAN_POINT('',(1.27E0,-1.E0,-7.5E-1));
#164=LINE('',#163,#162);
#165=DIRECTION('',(4.472135955E-1,0.E0,8.944271909999E-1));
#166=VECTOR('',#165,5.590169943749E-1);
#167=CARTESIAN_POINT('',(1.02E0,-1.E0,-1.25E0));
#168=LINE('',#167,#166);
#169=DIRECTION('',(1.E0,0.E0,0.E0));
#170=VECTOR('',#169,2.04E0);
#171=CARTESIAN_POINT('',(-1.02E0,-1.E0,-1.25E0));
#172=LINE('',#171,#170);
#173=DIRECTION('',(4.472135955E-1,0.E0,-8.944271909999E-1));
#174=VECTOR('',#173,5.590169943749E-1);
#175=CARTESIAN_POINT('',(-1.27E0,-1.E0,-7.5E-1));
#176=LINE('',#175,#174);
#177=DIRECTION('',(1.E0,0.E0,0.E0));
#178=VECTOR('',#177,6.5E-1);
#179=CARTESIAN_POINT('',(-3.25E-1,-1.E0,-3.25E-1));
#180=LINE('',#179,#178);
#181=DIRECTION('',(0.E0,0.E0,1.E0));
#182=VECTOR('',#181,6.5E-1);
#183=CARTESIAN_POINT('',(3.25E-1,-1.E0,-3.25E-1));
#184=LINE('',#183,#182);
#185=DIRECTION('',(1.E0,0.E0,0.E0));
#186=VECTOR('',#185,6.5E-1);
#187=CARTESIAN_POINT('',(-3.25E-1,-1.E0,3.25E-1));
#188=LINE('',#187,#186);
#189=DIRECTION('',(0.E0,0.E0,1.E0));
#190=VECTOR('',#189,6.5E-1);
#191=CARTESIAN_POINT('',(-3.25E-1,-1.E0,-3.25E-1));
#192=LINE('',#191,#190);
#193=DIRECTION('',(1.E0,0.E0,0.E0));
#194=VECTOR('',#193,6.5E-1);
#195=CARTESIAN_POINT('',(-3.25E-1,3.717E0,-3.25E-1));
#196=LINE('',#195,#194);
#197=DIRECTION('',(0.E0,-1.E0,0.E0));
#198=VECTOR('',#197,2.717E0);
#199=CARTESIAN_POINT('',(-3.25E-1,3.717E0,-3.25E-1));
#200=LINE('',#199,#198);
#201=DIRECTION('',(0.E0,1.E0,0.E0));
#202=VECTOR('',#201,2.717E0);
#203=CARTESIAN_POINT('',(3.25E-1,1.E0,-3.25E-1));
#204=LINE('',#203,#202);
#205=DIRECTION('',(-1.E0,0.E0,0.E0));
#206=VECTOR('',#205,6.5E-1);
#207=CARTESIAN_POINT('',(3.25E-1,-7.1E0,-3.25E-1));
#208=LINE('',#207,#206);
#209=DIRECTION('',(0.E0,1.E0,0.E0));
#210=VECTOR('',#209,6.1E0);
#211=CARTESIAN_POINT('',(3.25E-1,-7.1E0,-3.25E-1));
#212=LINE('',#211,#210);
#213=DIRECTION('',(0.E0,-1.E0,0.E0));
#214=VECTOR('',#213,6.1E0);
#215=CARTESIAN_POINT('',(-3.25E-1,-1.E0,-3.25E-1));
#216=LINE('',#215,#214);
#217=DIRECTION('',(2.821382463434E-1,-9.169493006162E-1,-2.821382463434E-1));
#218=VECTOR('',#217,7.088723439379E-1);
#219=CARTESIAN_POINT('',(1.25E-1,4.367E0,-1.25E-1));
#220=LINE('',#219,#218);
#221=DIRECTION('',(2.821382463434E-1,-9.169493006162E-1,2.821382463434E-1));
#222=VECTOR('',#221,7.088723439379E-1);
#223=CARTESIAN_POINT('',(1.25E-1,4.367E0,1.25E-1));
#224=LINE('',#223,#222);
#225=DIRECTION('',(0.E0,0.E0,-1.E0));
#226=VECTOR('',#225,6.5E-1);
#227=CARTESIAN_POINT('',(3.25E-1,3.717E0,3.25E-1));
#228=LINE('',#227,#226);
#229=DIRECTION('',(0.E0,0.E0,-1.E0));
#230=VECTOR('',#229,6.5E-1);
#231=CARTESIAN_POINT('',(3.25E-1,-7.1E0,3.25E-1));
#232=LINE('',#231,#230);
#233=DIRECTION('',(-1.E0,0.E0,0.E0));
#234=VECTOR('',#233,6.5E-1);
#235=CARTESIAN_POINT('',(3.25E-1,3.717E0,3.25E-1));
#236=LINE('',#235,#234);
#237=DIRECTION('',(0.E0,1.E0,0.E0));
#238=VECTOR('',#237,2.717E0);
#239=CARTESIAN_POINT('',(3.25E-1,1.E0,3.25E-1));
#240=LINE('',#239,#238);
#241=DIRECTION('',(0.E0,-1.E0,0.E0));
#242=VECTOR('',#241,2.717E0);
#243=CARTESIAN_POINT('',(-3.25E-1,3.717E0,3.25E-1));
#244=LINE('',#243,#242);
#245=DIRECTION('',(1.E0,0.E0,0.E0));
#246=VECTOR('',#245,6.5E-1);
#247=CARTESIAN_POINT('',(-3.25E-1,-7.1E0,3.25E-1));
#248=LINE('',#247,#246);
#249=DIRECTION('',(0.E0,-1.E0,0.E0));
#250=VECTOR('',#249,6.1E0);
#251=CARTESIAN_POINT('',(-3.25E-1,-1.E0,3.25E-1));
#252=LINE('',#251,#250);
#253=DIRECTION('',(0.E0,1.E0,0.E0));
#254=VECTOR('',#253,6.1E0);
#255=CARTESIAN_POINT('',(3.25E-1,-7.1E0,3.25E-1));
#256=LINE('',#255,#254);
#257=DIRECTION('',(-2.821382463434E-1,-9.169493006162E-1,2.821382463434E-1));
#258=VECTOR('',#257,7.088723439379E-1);
#259=CARTESIAN_POINT('',(-1.25E-1,4.367E0,1.25E-1));
#260=LINE('',#259,#258);
#261=DIRECTION('',(0.E0,0.E0,-1.E0));
#262=VECTOR('',#261,2.5E-1);
#263=CARTESIAN_POINT('',(-1.25E-1,4.367E0,1.25E-1));
#264=LINE('',#263,#262);
#265=DIRECTION('',(1.E0,0.E0,0.E0));
#266=VECTOR('',#265,2.5E-1);
#267=CARTESIAN_POINT('',(-1.25E-1,4.367E0,-1.25E-1));
#268=LINE('',#267,#266);
#269=DIRECTION('',(0.E0,0.E0,-1.E0));
#270=VECTOR('',#269,2.5E-1);
#271=CARTESIAN_POINT('',(1.25E-1,4.367E0,1.25E-1));
#272=LINE('',#271,#270);
#273=DIRECTION('',(-1.E0,0.E0,0.E0));
#274=VECTOR('',#273,2.5E-1);
#275=CARTESIAN_POINT('',(1.25E-1,4.367E0,1.25E-1));
#276=LINE('',#275,#274);
#277=DIRECTION('',(-2.821382463434E-1,-9.169493006162E-1,-2.821382463434E-1));
#278=VECTOR('',#277,7.088723439379E-1);
#279=CARTESIAN_POINT('',(-1.25E-1,4.367E0,-1.25E-1));
#280=LINE('',#279,#278);
#281=DIRECTION('',(0.E0,0.E0,-1.E0));
#282=VECTOR('',#281,6.5E-1);
#283=CARTESIAN_POINT('',(-3.25E-1,3.717E0,3.25E-1));
#284=LINE('',#283,#282);
#285=DIRECTION('',(0.E0,0.E0,-1.E0));
#286=VECTOR('',#285,6.5E-1);
#287=CARTESIAN_POINT('',(-3.25E-1,-7.1E0,3.25E-1));
#288=LINE('',#287,#286);
#289=DIRECTION('',(2.821382463434E-1,-9.169493006162E-1,2.821382463434E-1));
#290=VECTOR('',#289,7.088723439379E-1);
#291=CARTESIAN_POINT('',(-3.25E-1,-7.1E0,-3.25E-1));
#292=LINE('',#291,#290);
#293=DIRECTION('',(-2.821382463434E-1,9.169493006162E-1,2.821382463434E-1));
#294=VECTOR('',#293,7.088723439379E-1);
#295=CARTESIAN_POINT('',(-1.25E-1,-7.75E0,1.25E-1));
#296=LINE('',#295,#294);
#297=DIRECTION('',(0.E0,0.E0,-1.E0));
#298=VECTOR('',#297,2.5E-1);
#299=CARTESIAN_POINT('',(-1.25E-1,-7.75E0,1.25E-1));
#300=LINE('',#299,#298);
#301=DIRECTION('',(1.E0,0.E0,0.E0));
#302=VECTOR('',#301,2.5E-1);
#303=CARTESIAN_POINT('',(-1.25E-1,-7.75E0,1.25E-1));
#304=LINE('',#303,#302);
#305=DIRECTION('',(0.E0,0.E0,-1.E0));
#306=VECTOR('',#305,2.5E-1);
#307=CARTESIAN_POINT('',(1.25E-1,-7.75E0,1.25E-1));
#308=LINE('',#307,#306);
#309=DIRECTION('',(-1.E0,0.E0,0.E0));
#310=VECTOR('',#309,2.5E-1);
#311=CARTESIAN_POINT('',(1.25E-1,-7.75E0,-1.25E-1));
#312=LINE('',#311,#310);
#313=DIRECTION('',(2.821382463434E-1,9.169493006162E-1,-2.821382463434E-1));
#314=VECTOR('',#313,7.088723439379E-1);
#315=CARTESIAN_POINT('',(1.25E-1,-7.75E0,-1.25E-1));
#316=LINE('',#315,#314);
#317=DIRECTION('',(-2.821382463434E-1,-9.169493006162E-1,-2.821382463434E-1));
#318=VECTOR('',#317,7.088723439379E-1);
#319=CARTESIAN_POINT('',(3.25E-1,-7.1E0,3.25E-1));
#320=LINE('',#319,#318);
#321=DIRECTION('',(0.E0,1.E0,0.E0));
#322=VECTOR('',#321,5.E-1);
#323=CARTESIAN_POINT('',(8.15E-1,1.E0,-1.2E0));
#324=LINE('',#323,#322);
#325=DIRECTION('',(0.E0,1.E0,0.E0));
#326=VECTOR('',#325,5.E-1);
#327=CARTESIAN_POINT('',(1.103675134595E0,1.E0,-7.E-1));
#328=LINE('',#327,#326);
#329=DIRECTION('',(0.E0,1.E0,0.E0));
#330=VECTOR('',#329,5.E-1);
#331=CARTESIAN_POINT('',(4.686751345948E-1,1.E0,-7.E-1));
#332=LINE('',#331,#330);
#333=DIRECTION('',(0.E0,1.E0,0.E0));
#334=VECTOR('',#333,5.E-1);
#335=CARTESIAN_POINT('',(1.8E-1,1.E0,-1.2E0));
#336=LINE('',#335,#334);
#337=DIRECTION('',(-1.E0,0.E0,0.E0));
#338=VECTOR('',#337,6.35E-1);
#339=CARTESIAN_POINT('',(8.15E-1,1.5E0,-1.2E0));
#340=LINE('',#339,#338);
#341=DIRECTION('',(-5.E-1,0.E0,-8.660254037844E-1));
#342=VECTOR('',#341,5.773502691896E-1);
#343=CARTESIAN_POINT('',(1.103675134595E0,1.5E0,-7.E-1));
#344=LINE('',#343,#342);
#345=DIRECTION('',(1.E0,0.E0,0.E0));
#346=VECTOR('',#345,6.35E-1);
#347=CARTESIAN_POINT('',(4.686751345948E-1,1.5E0,-7.E-1));
#348=LINE('',#347,#346);
#349=DIRECTION('',(5.E-1,0.E0,8.660254037844E-1));
#350=VECTOR('',#349,5.773502691896E-1);
#351=CARTESIAN_POINT('',(1.8E-1,1.5E0,-1.2E0));
#352=LINE('',#351,#350);
#353=DIRECTION('',(-5.E-1,0.E0,8.660254037844E-1));
#354=VECTOR('',#353,5.773502691896E-1);
#355=CARTESIAN_POINT('',(-8.15E-1,1.5E0,-1.2E0));
#356=LINE('',#355,#354);
#357=DIRECTION('',(-1.E0,0.E0,0.E0));
#358=VECTOR('',#357,6.35E-1);
#359=CARTESIAN_POINT('',(-1.8E-1,1.5E0,-1.2E0));
#360=LINE('',#359,#358);
#361=DIRECTION('',(5.E-1,0.E0,-8.660254037844E-1));
#362=VECTOR('',#361,5.773502691896E-1);
#363=CARTESIAN_POINT('',(-4.686751345948E-1,1.5E0,-7.E-1));
#364=LINE('',#363,#362);
#365=DIRECTION('',(1.E0,0.E0,0.E0));
#366=VECTOR('',#365,6.35E-1);
#367=CARTESIAN_POINT('',(-1.103675134595E0,1.5E0,-7.E-1));
#368=LINE('',#367,#366);
#369=DIRECTION('',(5.E-1,0.E0,-8.660254037844E-1));
#370=VECTOR('',#369,5.773502691896E-1);
#371=CARTESIAN_POINT('',(8.15E-1,1.5E0,1.2E0));
#372=LINE('',#371,#370);
#373=DIRECTION('',(1.E0,0.E0,0.E0));
#374=VECTOR('',#373,6.35E-1);
#375=CARTESIAN_POINT('',(1.8E-1,1.5E0,1.2E0));
#376=LINE('',#375,#374);
#377=DIRECTION('',(-5.E-1,0.E0,8.660254037844E-1));
#378=VECTOR('',#377,5.773502691896E-1);
#379=CARTESIAN_POINT('',(4.686751345948E-1,1.5E0,7.E-1));
#380=LINE('',#379,#378);
#381=DIRECTION('',(-1.E0,0.E0,0.E0));
#382=VECTOR('',#381,6.35E-1);
#383=CARTESIAN_POINT('',(1.103675134595E0,1.5E0,7.E-1));
#384=LINE('',#383,#382);
#385=DIRECTION('',(1.E0,0.E0,0.E0));
#386=VECTOR('',#385,6.35E-1);
#387=CARTESIAN_POINT('',(-8.15E-1,1.5E0,1.2E0));
#388=LINE('',#387,#386);
#389=DIRECTION('',(5.E-1,0.E0,8.660254037844E-1));
#390=VECTOR('',#389,5.773502691896E-1);
#391=CARTESIAN_POINT('',(-1.103675134595E0,1.5E0,7.E-1));
#392=LINE('',#391,#390);
#393=DIRECTION('',(-1.E0,0.E0,0.E0));
#394=VECTOR('',#393,6.35E-1);
#395=CARTESIAN_POINT('',(-4.686751345948E-1,1.5E0,7.E-1));
#396=LINE('',#395,#394);
#397=DIRECTION('',(-5.E-1,0.E0,-8.660254037844E-1));
#398=VECTOR('',#397,5.773502691896E-1);
#399=CARTESIAN_POINT('',(-1.8E-1,1.5E0,1.2E0));
#400=LINE('',#399,#398);
#401=DIRECTION('',(0.E0,1.E0,0.E0));
#402=VECTOR('',#401,5.E-1);
#403=CARTESIAN_POINT('',(-8.15E-1,1.E0,-1.2E0));
#404=LINE('',#403,#402);
#405=DIRECTION('',(0.E0,1.E0,0.E0));
#406=VECTOR('',#405,5.E-1);
#407=CARTESIAN_POINT('',(-1.8E-1,1.E0,-1.2E0));
#408=LINE('',#407,#406);
#409=DIRECTION('',(0.E0,1.E0,0.E0));
#410=VECTOR('',#409,5.E-1);
#411=CARTESIAN_POINT('',(-4.686751345948E-1,1.E0,-7.E-1));
#412=LINE('',#411,#410);
#413=DIRECTION('',(0.E0,1.E0,0.E0));
#414=VECTOR('',#413,5.E-1);
#415=CARTESIAN_POINT('',(-1.103675134595E0,1.E0,-7.E-1));
#416=LINE('',#415,#414);
#417=DIRECTION('',(0.E0,1.E0,0.E0));
#418=VECTOR('',#417,5.E-1);
#419=CARTESIAN_POINT('',(8.15E-1,1.E0,1.2E0));
#420=LINE('',#419,#418);
#421=DIRECTION('',(0.E0,1.E0,0.E0));
#422=VECTOR('',#421,5.E-1);
#423=CARTESIAN_POINT('',(1.8E-1,1.E0,1.2E0));
#424=LINE('',#423,#422);
#425=DIRECTION('',(0.E0,1.E0,0.E0));
#426=VECTOR('',#425,5.E-1);
#427=CARTESIAN_POINT('',(4.686751345948E-1,1.E0,7.E-1));
#428=LINE('',#427,#426);
#429=DIRECTION('',(0.E0,1.E0,0.E0));
#430=VECTOR('',#429,5.E-1);
#431=CARTESIAN_POINT('',(1.103675134595E0,1.E0,7.E-1));
#432=LINE('',#431,#430);
#433=DIRECTION('',(0.E0,1.E0,0.E0));
#434=VECTOR('',#433,5.E-1);
#435=CARTESIAN_POINT('',(-8.15E-1,1.E0,1.2E0));
#436=LINE('',#435,#434);
#437=DIRECTION('',(0.E0,1.E0,0.E0));
#438=VECTOR('',#437,5.E-1);
#439=CARTESIAN_POINT('',(-1.103675134595E0,1.E0,7.E-1));
#440=LINE('',#439,#438);
#441=DIRECTION('',(0.E0,1.E0,0.E0));
#442=VECTOR('',#441,5.E-1);
#443=CARTESIAN_POINT('',(-4.686751345948E-1,1.E0,7.E-1));
#444=LINE('',#443,#442);
#445=DIRECTION('',(0.E0,1.E0,0.E0));
#446=VECTOR('',#445,5.E-1);
#447=CARTESIAN_POINT('',(-1.8E-1,1.E0,1.2E0));
#448=LINE('',#447,#446);
#449=CARTESIAN_POINT('',(-1.27E0,1.E0,7.5E-1));
#450=CARTESIAN_POINT('',(-1.27E0,1.E0,-7.5E-1));
#451=VERTEX_POINT('',#449);
#452=VERTEX_POINT('',#450);
#453=CARTESIAN_POINT('',(-1.02E0,1.E0,-1.25E0));
#454=VERTEX_POINT('',#453);
#455=CARTESIAN_POINT('',(1.02E0,1.E0,-1.25E0));
#456=VERTEX_POINT('',#455);
#457=CARTESIAN_POINT('',(1.27E0,1.E0,-7.5E-1));
#458=VERTEX_POINT('',#457);
#459=CARTESIAN_POINT('',(1.27E0,1.E0,7.5E-1));
#460=VERTEX_POINT('',#459);
#461=CARTESIAN_POINT('',(1.02E0,1.E0,1.25E0));
#462=VERTEX_POINT('',#461);
#463=CARTESIAN_POINT('',(-1.02E0,1.E0,1.25E0));
#464=VERTEX_POINT('',#463);
#465=CARTESIAN_POINT('',(-1.27E0,-1.E0,7.5E-1));
#466=CARTESIAN_POINT('',(-1.27E0,-1.E0,-7.5E-1));
#467=VERTEX_POINT('',#465);
#468=VERTEX_POINT('',#466);
#469=CARTESIAN_POINT('',(-1.02E0,-1.E0,-1.25E0));
#470=VERTEX_POINT('',#469);
#471=CARTESIAN_POINT('',(1.02E0,-1.E0,-1.25E0));
#472=VERTEX_POINT('',#471);
#473=CARTESIAN_POINT('',(1.27E0,-1.E0,-7.5E-1));
#474=VERTEX_POINT('',#473);
#475=CARTESIAN_POINT('',(1.27E0,-1.E0,7.5E-1));
#476=VERTEX_POINT('',#475);
#477=CARTESIAN_POINT('',(1.02E0,-1.E0,1.25E0));
#478=VERTEX_POINT('',#477);
#479=CARTESIAN_POINT('',(-1.02E0,-1.E0,1.25E0));
#480=VERTEX_POINT('',#479);
#481=CARTESIAN_POINT('',(8.15E-1,1.5E0,-1.2E0));
#482=CARTESIAN_POINT('',(1.8E-1,1.5E0,-1.2E0));
#483=VERTEX_POINT('',#481);
#484=VERTEX_POINT('',#482);
#485=CARTESIAN_POINT('',(4.686751345948E-1,1.5E0,-7.E-1));
#486=VERTEX_POINT('',#485);
#487=CARTESIAN_POINT('',(1.103675134595E0,1.5E0,-7.E-1));
#488=VERTEX_POINT('',#487);
#489=CARTESIAN_POINT('',(8.15E-1,1.E0,-1.2E0));
#490=CARTESIAN_POINT('',(1.8E-1,1.E0,-1.2E0));
#491=VERTEX_POINT('',#489);
#492=VERTEX_POINT('',#490);
#493=CARTESIAN_POINT('',(4.686751345948E-1,1.E0,-7.E-1));
#494=VERTEX_POINT('',#493);
#495=CARTESIAN_POINT('',(1.103675134595E0,1.E0,-7.E-1));
#496=VERTEX_POINT('',#495);
#497=CARTESIAN_POINT('',(-3.25E-1,1.E0,-3.25E-1));
#498=CARTESIAN_POINT('',(3.25E-1,1.E0,-3.25E-1));
#499=VERTEX_POINT('',#497);
#500=VERTEX_POINT('',#498);
#501=CARTESIAN_POINT('',(-3.25E-1,1.E0,3.25E-1));
#502=CARTESIAN_POINT('',(3.25E-1,1.E0,3.25E-1));
#503=VERTEX_POINT('',#501);
#504=VERTEX_POINT('',#502);
#505=CARTESIAN_POINT('',(-3.25E-1,-1.E0,-3.25E-1));
#506=CARTESIAN_POINT('',(3.25E-1,-1.E0,-3.25E-1));
#507=VERTEX_POINT('',#505);
#508=VERTEX_POINT('',#506);
#509=CARTESIAN_POINT('',(-3.25E-1,-1.E0,3.25E-1));
#510=CARTESIAN_POINT('',(3.25E-1,-1.E0,3.25E-1));
#511=VERTEX_POINT('',#509);
#512=VERTEX_POINT('',#510);
#513=CARTESIAN_POINT('',(-8.15E-1,1.5E0,-1.2E0));
#514=CARTESIAN_POINT('',(-1.103675134595E0,1.5E0,-7.E-1));
#515=VERTEX_POINT('',#513);
#516=VERTEX_POINT('',#514);
#517=CARTESIAN_POINT('',(-4.686751345948E-1,1.5E0,-7.E-1));
#518=VERTEX_POINT('',#517);
#519=CARTESIAN_POINT('',(-1.8E-1,1.5E0,-1.2E0));
#520=VERTEX_POINT('',#519);
#521=CARTESIAN_POINT('',(8.15E-1,1.5E0,1.2E0));
#522=CARTESIAN_POINT('',(1.103675134595E0,1.5E0,7.E-1));
#523=VERTEX_POINT('',#521);
#524=VERTEX_POINT('',#522);
#525=CARTESIAN_POINT('',(4.686751345948E-1,1.5E0,7.E-1));
#526=VERTEX_POINT('',#525);
#527=CARTESIAN_POINT('',(1.8E-1,1.5E0,1.2E0));
#528=VERTEX_POINT('',#527);
#529=CARTESIAN_POINT('',(-8.15E-1,1.5E0,1.2E0));
#530=CARTESIAN_POINT('',(-1.8E-1,1.5E0,1.2E0));
#531=VERTEX_POINT('',#529);
#532=VERTEX_POINT('',#530);
#533=CARTESIAN_POINT('',(-4.686751345948E-1,1.5E0,7.E-1));
#534=VERTEX_POINT('',#533);
#535=CARTESIAN_POINT('',(-1.103675134595E0,1.5E0,7.E-1));
#536=VERTEX_POINT('',#535);
#537=CARTESIAN_POINT('',(-8.15E-1,1.E0,-1.2E0));
#538=CARTESIAN_POINT('',(-1.103675134595E0,1.E0,-7.E-1));
#539=VERTEX_POINT('',#537);
#540=VERTEX_POINT('',#538);
#541=CARTESIAN_POINT('',(-4.686751345948E-1,1.E0,-7.E-1));
#542=VERTEX_POINT('',#541);
#543=CARTESIAN_POINT('',(-1.8E-1,1.E0,-1.2E0));
#544=VERTEX_POINT('',#543);
#545=CARTESIAN_POINT('',(8.15E-1,1.E0,1.2E0));
#546=CARTESIAN_POINT('',(1.103675134595E0,1.E0,7.E-1));
#547=VERTEX_POINT('',#545);
#548=VERTEX_POINT('',#546);
#549=CARTESIAN_POINT('',(4.686751345948E-1,1.E0,7.E-1));
#550=VERTEX_POINT('',#549);
#551=CARTESIAN_POINT('',(1.8E-1,1.E0,1.2E0));
#552=VERTEX_POINT('',#551);
#553=CARTESIAN_POINT('',(-8.15E-1,1.E0,1.2E0));
#554=CARTESIAN_POINT('',(-1.8E-1,1.E0,1.2E0));
#555=VERTEX_POINT('',#553);
#556=VERTEX_POINT('',#554);
#557=CARTESIAN_POINT('',(-4.686751345948E-1,1.E0,7.E-1));
#558=VERTEX_POINT('',#557);
#559=CARTESIAN_POINT('',(-1.103675134595E0,1.E0,7.E-1));
#560=VERTEX_POINT('',#559);
#561=CARTESIAN_POINT('',(-3.25E-1,3.717E0,3.25E-1));
#562=CARTESIAN_POINT('',(-3.25E-1,3.717E0,-3.25E-1));
#563=VERTEX_POINT('',#561);
#564=VERTEX_POINT('',#562);
#565=CARTESIAN_POINT('',(-1.25E-1,4.367E0,1.25E-1));
#566=CARTESIAN_POINT('',(-1.25E-1,4.367E0,-1.25E-1));
#567=VERTEX_POINT('',#565);
#568=VERTEX_POINT('',#566);
#569=CARTESIAN_POINT('',(1.25E-1,4.367E0,1.25E-1));
#570=VERTEX_POINT('',#569);
#571=CARTESIAN_POINT('',(3.25E-1,3.717E0,3.25E-1));
#572=VERTEX_POINT('',#571);
#573=CARTESIAN_POINT('',(3.25E-1,3.717E0,-3.25E-1));
#574=VERTEX_POINT('',#573);
#575=CARTESIAN_POINT('',(1.25E-1,4.367E0,-1.25E-1));
#576=VERTEX_POINT('',#575);
#577=CARTESIAN_POINT('',(-1.25E-1,-7.75E0,1.25E-1));
#578=CARTESIAN_POINT('',(-1.25E-1,-7.75E0,-1.25E-1));
#579=VERTEX_POINT('',#577);
#580=VERTEX_POINT('',#578);
#581=CARTESIAN_POINT('',(-3.25E-1,-7.1E0,3.25E-1));
#582=CARTESIAN_POINT('',(-3.25E-1,-7.1E0,-3.25E-1));
#583=VERTEX_POINT('',#581);
#584=VERTEX_POINT('',#582);
#585=CARTESIAN_POINT('',(1.25E-1,-7.75E0,1.25E-1));
#586=VERTEX_POINT('',#585);
#587=CARTESIAN_POINT('',(3.25E-1,-7.1E0,3.25E-1));
#588=VERTEX_POINT('',#587);
#589=CARTESIAN_POINT('',(3.25E-1,-7.1E0,-3.25E-1));
#590=VERTEX_POINT('',#589);
#591=CARTESIAN_POINT('',(1.25E-1,-7.75E0,-1.25E-1));
#592=VERTEX_POINT('',#591);
#593=CARTESIAN_POINT('',(0.E0,1.E0,0.E0));
#594=DIRECTION('',(0.E0,-1.E0,0.E0));
#595=DIRECTION('',(1.E0,0.E0,0.E0));
#596=AXIS2_PLACEMENT_3D('',#593,#594,#595);
#597=PLANE('',#596);
#599=ORIENTED_EDGE('',*,*,#598,.T.);
#601=ORIENTED_EDGE('',*,*,#600,.T.);
#603=ORIENTED_EDGE('',*,*,#602,.T.);
#605=ORIENTED_EDGE('',*,*,#604,.T.);
#607=ORIENTED_EDGE('',*,*,#606,.T.);
#609=ORIENTED_EDGE('',*,*,#608,.T.);
#611=ORIENTED_EDGE('',*,*,#610,.T.);
#613=ORIENTED_EDGE('',*,*,#612,.T.);
#614=EDGE_LOOP('',(#599,#601,#603,#605,#607,#609,#611,#613));
#615=FACE_OUTER_BOUND('',#614,.F.);
#617=ORIENTED_EDGE('',*,*,#616,.T.);
#619=ORIENTED_EDGE('',*,*,#618,.T.);
#621=ORIENTED_EDGE('',*,*,#620,.T.);
#623=ORIENTED_EDGE('',*,*,#622,.T.);
#624=EDGE_LOOP('',(#617,#619,#621,#623));
#625=FACE_BOUND('',#624,.F.);
#627=ORIENTED_EDGE('',*,*,#626,.T.);
#629=ORIENTED_EDGE('',*,*,#628,.T.);
#631=ORIENTED_EDGE('',*,*,#630,.T.);
#633=ORIENTED_EDGE('',*,*,#632,.T.);
#634=EDGE_LOOP('',(#627,#629,#631,#633));
#635=FACE_BOUND('',#634,.F.);
#637=ORIENTED_EDGE('',*,*,#636,.T.);
#639=ORIENTED_EDGE('',*,*,#638,.T.);
#641=ORIENTED_EDGE('',*,*,#640,.T.);
#643=ORIENTED_EDGE('',*,*,#642,.T.);
#644=EDGE_LOOP('',(#637,#639,#641,#643));
#645=FACE_BOUND('',#644,.F.);
#647=ORIENTED_EDGE('',*,*,#646,.T.);
#649=ORIENTED_EDGE('',*,*,#648,.T.);
#651=ORIENTED_EDGE('',*,*,#650,.T.);
#653=ORIENTED_EDGE('',*,*,#652,.T.);
#654=EDGE_LOOP('',(#647,#649,#651,#653));
#655=FACE_BOUND('',#654,.F.);
#657=ORIENTED_EDGE('',*,*,#656,.F.);
#659=ORIENTED_EDGE('',*,*,#658,.T.);
#661=ORIENTED_EDGE('',*,*,#660,.T.);
#663=ORIENTED_EDGE('',*,*,#662,.F.);
#664=EDGE_LOOP('',(#657,#659,#661,#663));
#665=FACE_BOUND('',#664,.F.);
#666=ADVANCED_FACE('',(#615,#625,#635,#645,#655,#665),#597,.F.);
#667=CARTESIAN_POINT('',(-1.27E0,1.E0,7.5E-1));
#668=DIRECTION('',(-1.E0,0.E0,0.E0));
#669=DIRECTION('',(0.E0,0.E0,-1.E0));
#670=AXIS2_PLACEMENT_3D('',#667,#668,#669);
#671=PLANE('',#670);
#672=ORIENTED_EDGE('',*,*,#598,.F.);
#674=ORIENTED_EDGE('',*,*,#673,.T.);
#676=ORIENTED_EDGE('',*,*,#675,.T.);
#678=ORIENTED_EDGE('',*,*,#677,.F.);
#679=EDGE_LOOP('',(#672,#674,#676,#678));
#680=FACE_OUTER_BOUND('',#679,.F.);
#681=ADVANCED_FACE('',(#680),#671,.T.);
#682=CARTESIAN_POINT('',(-1.02E0,1.E0,1.25E0));
#683=DIRECTION('',(-8.944271909999E-1,0.E0,4.472135955E-1));
#684=DIRECTION('',(-4.472135955E-1,0.E0,-8.944271909999E-1));
#685=AXIS2_PLACEMENT_3D('',#682,#683,#684);
#686=PLANE('',#685);
#687=ORIENTED_EDGE('',*,*,#612,.F.);
#689=ORIENTED_EDGE('',*,*,#688,.T.);
#691=ORIENTED_EDGE('',*,*,#690,.T.);
#692=ORIENTED_EDGE('',*,*,#673,.F.);
#693=EDGE_LOOP('',(#687,#689,#691,#692));
#694=FACE_OUTER_BOUND('',#693,.F.);
#695=ADVANCED_FACE('',(#694),#686,.T.);
#696=CARTESIAN_POINT('',(1.02E0,1.E0,1.25E0));
#697=DIRECTION('',(0.E0,0.E0,1.E0));
#698=DIRECTION('',(-1.E0,0.E0,0.E0));
#699=AXIS2_PLACEMENT_3D('',#696,#697,#698);
#700=PLANE('',#699);
#701=ORIENTED_EDGE('',*,*,#610,.F.);
#703=ORIENTED_EDGE('',*,*,#702,.T.);
#705=ORIENTED_EDGE('',*,*,#704,.T.);
#706=ORIENTED_EDGE('',*,*,#688,.F.);
#707=EDGE_LOOP('',(#701,#703,#705,#706));
#708=FACE_OUTER_BOUND('',#707,.F.);
#709=ADVANCED_FACE('',(#708),#700,.T.);
#710=CARTESIAN_POINT('',(1.27E0,1.E0,7.5E-1));
#711=DIRECTION('',(8.944271909999E-1,0.E0,4.472135955E-1));
#712=DIRECTION('',(-4.472135955E-1,0.E0,8.944271909999E-1));
#713=AXIS2_PLACEMENT_3D('',#710,#711,#712);
#714=PLANE('',#713);
#715=ORIENTED_EDGE('',*,*,#608,.F.);
#717=ORIENTED_EDGE('',*,*,#716,.T.);
#719=ORIENTED_EDGE('',*,*,#718,.T.);
#720=ORIENTED_EDGE('',*,*,#702,.F.);
#721=EDGE_LOOP('',(#715,#717,#719,#720));
#722=FACE_OUTER_BOUND('',#721,.F.);
#723=ADVANCED_FACE('',(#722),#714,.T.);
#724=CARTESIAN_POINT('',(1.27E0,1.E0,-7.5E-1));
#725=DIRECTION('',(1.E0,0.E0,0.E0));
#726=DIRECTION('',(0.E0,0.E0,1.E0));
#727=AXIS2_PLACEMENT_3D('',#724,#725,#726);
#728=PLANE('',#727);
#729=ORIENTED_EDGE('',*,*,#606,.F.);
#731=ORIENTED_EDGE('',*,*,#730,.T.);
#733=ORIENTED_EDGE('',*,*,#732,.T.);
#734=ORIENTED_EDGE('',*,*,#716,.F.);
#735=EDGE_LOOP('',(#729,#731,#733,#734));
#736=FACE_OUTER_BOUND('',#735,.F.);
#737=ADVANCED_FACE('',(#736),#728,.T.);
#738=CARTESIAN_POINT('',(1.02E0,1.E0,-1.25E0));
#739=DIRECTION('',(8.944271909999E-1,0.E0,-4.472135955E-1));
#740=DIRECTION('',(4.472135955E-1,0.E0,8.944271909999E-1));
#741=AXIS2_PLACEMENT_3D('',#738,#739,#740);
#742=PLANE('',#741);
#743=ORIENTED_EDGE('',*,*,#604,.F.);
#745=ORIENTED_EDGE('',*,*,#744,.T.);
#747=ORIENTED_EDGE('',*,*,#746,.T.);
#748=ORIENTED_EDGE('',*,*,#730,.F.);
#749=EDGE_LOOP('',(#743,#745,#747,#748));
#750=FACE_OUTER_BOUND('',#749,.F.);
#751=ADVANCED_FACE('',(#750),#742,.T.);
#752=CARTESIAN_POINT('',(-1.02E0,1.E0,-1.25E0));
#753=DIRECTION('',(0.E0,0.E0,-1.E0));
#754=DIRECTION('',(1.E0,0.E0,0.E0));
#755=AXIS2_PLACEMENT_3D('',#752,#753,#754);
#756=PLANE('',#755);
#757=ORIENTED_EDGE('',*,*,#602,.F.);
#759=ORIENTED_EDGE('',*,*,#758,.T.);
#761=ORIENTED_EDGE('',*,*,#760,.T.);
#762=ORIENTED_EDGE('',*,*,#744,.F.);
#763=EDGE_LOOP('',(#757,#759,#761,#762));
#764=FACE_OUTER_BOUND('',#763,.F.);
#765=ADVANCED_FACE('',(#764),#756,.T.);
#766=CARTESIAN_POINT('',(-1.27E0,1.E0,-7.5E-1));
#767=DIRECTION('',(-8.944271909999E-1,0.E0,-4.472135955E-1));
#768=DIRECTION('',(4.472135955E-1,0.E0,-8.944271909999E-1));
#769=AXIS2_PLACEMENT_3D('',#766,#767,#768);
#770=PLANE('',#769);
#771=ORIENTED_EDGE('',*,*,#600,.F.);
#772=ORIENTED_EDGE('',*,*,#677,.T.);
#774=ORIENTED_EDGE('',*,*,#773,.T.);
#775=ORIENTED_EDGE('',*,*,#758,.F.);
#776=EDGE_LOOP('',(#771,#772,#774,#775));
#777=FACE_OUTER_BOUND('',#776,.F.);
#778=ADVANCED_FACE('',(#777),#770,.T.);
#779=CARTESIAN_POINT('',(0.E0,-1.E0,0.E0));
#780=DIRECTION('',(0.E0,-1.E0,0.E0));
#781=DIRECTION('',(1.E0,0.E0,0.E0));
#782=AXIS2_PLACEMENT_3D('',#779,#780,#781);
#783=PLANE('',#782);
#784=ORIENTED_EDGE('',*,*,#675,.F.);
#785=ORIENTED_EDGE('',*,*,#690,.F.);
#786=ORIENTED_EDGE('',*,*,#704,.F.);
#787=ORIENTED_EDGE('',*,*,#718,.F.);
#788=ORIENTED_EDGE('',*,*,#732,.F.);
#789=ORIENTED_EDGE('',*,*,#746,.F.);
#790=ORIENTED_EDGE('',*,*,#760,.F.);
#791=ORIENTED_EDGE('',*,*,#773,.F.);
#792=EDGE_LOOP('',(#784,#785,#786,#787,#788,#789,#790,#791));
#793=FACE_OUTER_BOUND('',#792,.F.);
#795=ORIENTED_EDGE('',*,*,#794,.T.);
#797=ORIENTED_EDGE('',*,*,#796,.T.);
#799=ORIENTED_EDGE('',*,*,#798,.F.);
#801=ORIENTED_EDGE('',*,*,#800,.F.);
#802=EDGE_LOOP('',(#795,#797,#799,#801));
#803=FACE_BOUND('',#802,.F.);
#804=ADVANCED_FACE('',(#793,#803),#783,.T.);
#805=CARTESIAN_POINT('',(0.E0,0.E0,-3.25E-1));
#806=DIRECTION('',(0.E0,0.E0,1.E0));
#807=DIRECTION('',(1.E0,0.E0,0.E0));
#808=AXIS2_PLACEMENT_3D('',#805,#806,#807);
#809=PLANE('',#808);
#811=ORIENTED_EDGE('',*,*,#810,.F.);
#813=ORIENTED_EDGE('',*,*,#812,.T.);
#814=ORIENTED_EDGE('',*,*,#656,.T.);
#816=ORIENTED_EDGE('',*,*,#815,.T.);
#817=EDGE_LOOP('',(#811,#813,#814,#816));
#818=FACE_OUTER_BOUND('',#817,.F.);
#819=ADVANCED_FACE('',(#818),#809,.F.);
#820=CARTESIAN_POINT('',(0.E0,0.E0,-3.25E-1));
#821=DIRECTION('',(0.E0,0.E0,1.E0));
#822=DIRECTION('',(1.E0,0.E0,0.E0));
#823=AXIS2_PLACEMENT_3D('',#820,#821,#822);
#824=PLANE('',#823);
#826=ORIENTED_EDGE('',*,*,#825,.F.);
#828=ORIENTED_EDGE('',*,*,#827,.T.);
#829=ORIENTED_EDGE('',*,*,#794,.F.);
#831=ORIENTED_EDGE('',*,*,#830,.T.);
#832=EDGE_LOOP('',(#826,#828,#829,#831));
#833=FACE_OUTER_BOUND('',#832,.F.);
#834=ADVANCED_FACE('',(#833),#824,.F.);
#835=CARTESIAN_POINT('',(0.E0,4.042E0,-2.25E-1));
#836=DIRECTION('',(0.E0,2.940858488375E-1,-9.557790087219E-1));
#837=DIRECTION('',(0.E0,9.557790087219E-1,2.940858488375E-1));
#838=AXIS2_PLACEMENT_3D('',#835,#836,#837);
#839=PLANE('',#838);
#840=ORIENTED_EDGE('',*,*,#810,.T.);
#842=ORIENTED_EDGE('',*,*,#841,.F.);
#844=ORIENTED_EDGE('',*,*,#843,.F.);
#846=ORIENTED_EDGE('',*,*,#845,.T.);
#847=EDGE_LOOP('',(#840,#842,#844,#846));
#848=FACE_OUTER_BOUND('',#847,.F.);
#849=ADVANCED_FACE('',(#848),#839,.T.);
#850=CARTESIAN_POINT('',(2.25E-1,4.042E0,0.E0));
#851=DIRECTION('',(9.557790087220E-1,2.940858488375E-1,0.E0));
#852=DIRECTION('',(2.940858488375E-1,-9.557790087220E-1,0.E0));
#853=AXIS2_PLACEMENT_3D('',#850,#851,#852);
#854=PLANE('',#853);
#856=ORIENTED_EDGE('',*,*,#855,.F.);
#858=ORIENTED_EDGE('',*,*,#857,.F.);
#860=ORIENTED_EDGE('',*,*,#859,.T.);
#861=ORIENTED_EDGE('',*,*,#841,.T.);
#862=EDGE_LOOP('',(#856,#858,#860,#861));
#863=FACE_OUTER_BOUND('',#862,.F.);
#864=ADVANCED_FACE('',(#863),#854,.T.);
#865=CARTESIAN_POINT('',(3.25E-1,-7.75E0,-3.25E-1));
#866=DIRECTION('',(1.E0,0.E0,0.E0));
#867=DIRECTION('',(0.E0,1.E0,0.E0));
#868=AXIS2_PLACEMENT_3D('',#865,#866,#867);
#869=PLANE('',#868);
#870=ORIENTED_EDGE('',*,*,#855,.T.);
#871=ORIENTED_EDGE('',*,*,#815,.F.);
#872=ORIENTED_EDGE('',*,*,#662,.T.);
#874=ORIENTED_EDGE('',*,*,#873,.T.);
#875=EDGE_LOOP('',(#870,#871,#872,#874));
#876=FACE_OUTER_BOUND('',#875,.F.);
#877=ADVANCED_FACE('',(#876),#869,.T.);
#878=CARTESIAN_POINT('',(3.25E-1,-7.75E0,-3.25E-1));
#879=DIRECTION('',(1.E0,0.E0,0.E0));
#880=DIRECTION('',(0.E0,1.E0,0.E0));
#881=AXIS2_PLACEMENT_3D('',#878,#879,#880);
#882=PLANE('',#881);
#884=ORIENTED_EDGE('',*,*,#883,.F.);
#886=ORIENTED_EDGE('',*,*,#885,.T.);
#887=ORIENTED_EDGE('',*,*,#796,.F.);
#888=ORIENTED_EDGE('',*,*,#827,.F.);
#889=EDGE_LOOP('',(#884,#886,#887,#888));
#890=FACE_OUTER_BOUND('',#889,.F.);
#891=ADVANCED_FACE('',(#890),#882,.T.);
#892=CARTESIAN_POINT('',(0.E0,0.E0,3.25E-1));
#893=DIRECTION('',(0.E0,0.E0,1.E0));
#894=DIRECTION('',(1.E0,0.E0,0.E0));
#895=AXIS2_PLACEMENT_3D('',#892,#893,#894);
#896=PLANE('',#895);
#898=ORIENTED_EDGE('',*,*,#897,.F.);
#899=ORIENTED_EDGE('',*,*,#873,.F.);
#900=ORIENTED_EDGE('',*,*,#660,.F.);
#902=ORIENTED_EDGE('',*,*,#901,.F.);
#903=EDGE_LOOP('',(#898,#899,#900,#902));
#904=FACE_OUTER_BOUND('',#903,.F.);
#905=ADVANCED_FACE('',(#904),#896,.T.);
#906=CARTESIAN_POINT('',(0.E0,0.E0,3.25E-1));
#907=DIRECTION('',(0.E0,0.E0,1.E0));
#908=DIRECTION('',(1.E0,0.E0,0.E0));
#909=AXIS2_PLACEMENT_3D('',#906,#907,#908);
#910=PLANE('',#909);
#912=ORIENTED_EDGE('',*,*,#911,.F.);
#914=ORIENTED_EDGE('',*,*,#913,.F.);
#915=ORIENTED_EDGE('',*,*,#798,.T.);
#916=ORIENTED_EDGE('',*,*,#885,.F.);
#917=EDGE_LOOP('',(#912,#914,#915,#916));
#918=FACE_OUTER_BOUND('',#917,.F.);
#919=ADVANCED_FACE('',(#918),#910,.T.);
#920=CARTESIAN_POINT('',(0.E0,4.042E0,2.25E-1));
#921=DIRECTION('',(0.E0,2.940858488375E-1,9.557790087219E-1));
#922=DIRECTION('',(0.E0,9.557790087219E-1,-2.940858488375E-1));
#923=AXIS2_PLACEMENT_3D('',#920,#921,#922);
#924=PLANE('',#923);
#926=ORIENTED_EDGE('',*,*,#925,.F.);
#927=ORIENTED_EDGE('',*,*,#857,.T.);
#928=ORIENTED_EDGE('',*,*,#897,.T.);
#930=ORIENTED_EDGE('',*,*,#929,.F.);
#931=EDGE_LOOP('',(#926,#927,#928,#930));
#932=FACE_OUTER_BOUND('',#931,.F.);
#933=ADVANCED_FACE('',(#932),#924,.T.);
#934=CARTESIAN_POINT('',(3.25E-1,4.367E0,-3.25E-1));
#935=DIRECTION('',(0.E0,1.E0,0.E0));
#936=DIRECTION('',(-1.E0,0.E0,0.E0));
#937=AXIS2_PLACEMENT_3D('',#934,#935,#936);
#938=PLANE('',#937);
#940=ORIENTED_EDGE('',*,*,#939,.T.);
#941=ORIENTED_EDGE('',*,*,#843,.T.);
#942=ORIENTED_EDGE('',*,*,#859,.F.);
#943=ORIENTED_EDGE('',*,*,#925,.T.);
#944=EDGE_LOOP('',(#940,#941,#942,#943));
#945=FACE_OUTER_BOUND('',#944,.F.);
#946=ADVANCED_FACE('',(#945),#938,.T.);
#947=CARTESIAN_POINT('',(-2.25E-1,4.042E0,0.E0));
#948=DIRECTION('',(-9.557790087220E-1,2.940858488375E-1,0.E0));
#949=DIRECTION('',(2.940858488375E-1,9.557790087220E-1,0.E0));
#950=AXIS2_PLACEMENT_3D('',#947,#948,#949);
#951=PLANE('',#950);
#953=ORIENTED_EDGE('',*,*,#952,.T.);
#954=ORIENTED_EDGE('',*,*,#845,.F.);
#955=ORIENTED_EDGE('',*,*,#939,.F.);
#956=ORIENTED_EDGE('',*,*,#929,.T.);
#957=EDGE_LOOP('',(#953,#954,#955,#956));
#958=FACE_OUTER_BOUND('',#957,.F.);
#959=ADVANCED_FACE('',(#958),#951,.T.);
#960=CARTESIAN_POINT('',(-3.25E-1,4.367E0,-3.25E-1));
#961=DIRECTION('',(-1.E0,0.E0,0.E0));
#962=DIRECTION('',(0.E0,-1.E0,0.E0));
#963=AXIS2_PLACEMENT_3D('',#960,#961,#962);
#964=PLANE('',#963);
#965=ORIENTED_EDGE('',*,*,#952,.F.);
#966=ORIENTED_EDGE('',*,*,#901,.T.);
#967=ORIENTED_EDGE('',*,*,#658,.F.);
#968=ORIENTED_EDGE('',*,*,#812,.F.);
#969=EDGE_LOOP('',(#965,#966,#967,#968));
#970=FACE_OUTER_BOUND('',#969,.F.);
#971=ADVANCED_FACE('',(#970),#964,.T.);
#972=CARTESIAN_POINT('',(-3.25E-1,4.367E0,-3.25E-1));
#973=DIRECTION('',(-1.E0,0.E0,0.E0));
#974=DIRECTION('',(0.E0,-1.E0,0.E0));
#975=AXIS2_PLACEMENT_3D('',#972,#973,#974);
#976=PLANE('',#975);
#978=ORIENTED_EDGE('',*,*,#977,.T.);
#979=ORIENTED_EDGE('',*,*,#830,.F.);
#980=ORIENTED_EDGE('',*,*,#800,.T.);
#981=ORIENTED_EDGE('',*,*,#913,.T.);
#982=EDGE_LOOP('',(#978,#979,#980,#981));
#983=FACE_OUTER_BOUND('',#982,.F.);
#984=ADVANCED_FACE('',(#983),#976,.T.);
#985=CARTESIAN_POINT('',(-2.25E-1,-7.425E0,0.E0));
#986=DIRECTION('',(-9.557790087220E-1,-2.940858488375E-1,0.E0));
#987=DIRECTION('',(-2.940858488375E-1,9.557790087220E-1,0.E0));
#988=AXIS2_PLACEMENT_3D('',#985,#986,#987);
#989=PLANE('',#988);
#991=ORIENTED_EDGE('',*,*,#990,.T.);
#993=ORIENTED_EDGE('',*,*,#992,.F.);
#994=ORIENTED_EDGE('',*,*,#977,.F.);
#996=ORIENTED_EDGE('',*,*,#995,.F.);
#997=EDGE_LOOP('',(#991,#993,#994,#996));
#998=FACE_OUTER_BOUND('',#997,.F.);
#999=ADVANCED_FACE('',(#998),#989,.T.);
#1000=CARTESIAN_POINT('',(-3.25E-1,-7.75E0,-3.25E-1));
#1001=DIRECTION('',(0.E0,-1.E0,0.E0));
#1002=DIRECTION('',(1.E0,0.E0,0.E0));
#1003=AXIS2_PLACEMENT_3D('',#1000,#1001,#1002);
#1004=PLANE('',#1003);
#1005=ORIENTED_EDGE('',*,*,#990,.F.);
#1007=ORIENTED_EDGE('',*,*,#1006,.T.);
#1009=ORIENTED_EDGE('',*,*,#1008,.T.);
#1011=ORIENTED_EDGE('',*,*,#1010,.T.);
#1012=EDGE_LOOP('',(#1005,#1007,#1009,#1011));
#1013=FACE_OUTER_BOUND('',#1012,.F.);
#1014=ADVANCED_FACE('',(#1013),#1004,.T.);
#1015=CARTESIAN_POINT('',(0.E0,-7.425E0,2.25E-1));
#1016=DIRECTION('',(0.E0,-2.940858488375E-1,9.557790087220E-1));
#1017=DIRECTION('',(0.E0,-9.557790087220E-1,-2.940858488375E-1));
#1018=AXIS2_PLACEMENT_3D('',#1015,#1016,#1017);
#1019=PLANE('',#1018);
#1020=ORIENTED_EDGE('',*,*,#1006,.F.);
#1021=ORIENTED_EDGE('',*,*,#995,.T.);
#1022=ORIENTED_EDGE('',*,*,#911,.T.);
#1024=ORIENTED_EDGE('',*,*,#1023,.T.);
#1025=EDGE_LOOP('',(#1020,#1021,#1022,#1024));
#1026=FACE_OUTER_BOUND('',#1025,.F.);
#1027=ADVANCED_FACE('',(#1026),#1019,.T.);
#1028=CARTESIAN_POINT('',(2.25E-1,-7.425E0,0.E0));
#1029=DIRECTION('',(9.557790087220E-1,-2.940858488375E-1,0.E0));
#1030=DIRECTION('',(-2.940858488375E-1,-9.557790087220E-1,0.E0));
#1031=AXIS2_PLACEMENT_3D('',#1028,#1029,#1030);
#1032=PLANE('',#1031);
#1033=ORIENTED_EDGE('',*,*,#883,.T.);
#1035=ORIENTED_EDGE('',*,*,#1034,.F.);
#1036=ORIENTED_EDGE('',*,*,#1008,.F.);
#1037=ORIENTED_EDGE('',*,*,#1023,.F.);
#1038=EDGE_LOOP('',(#1033,#1035,#1036,#1037));
#1039=FACE_OUTER_BOUND('',#1038,.F.);
#1040=ADVANCED_FACE('',(#1039),#1032,.T.);
#1041=CARTESIAN_POINT('',(0.E0,-7.425E0,-2.25E-1));
#1042=DIRECTION('',(0.E0,-2.940858488375E-1,-9.557790087220E-1));
#1043=DIRECTION('',(0.E0,-9.557790087220E-1,2.940858488375E-1));
#1044=AXIS2_PLACEMENT_3D('',#1041,#1042,#1043);
#1045=PLANE('',#1044);
#1046=ORIENTED_EDGE('',*,*,#1010,.F.);
#1047=ORIENTED_EDGE('',*,*,#1034,.T.);
#1048=ORIENTED_EDGE('',*,*,#825,.T.);
#1049=ORIENTED_EDGE('',*,*,#992,.T.);
#1050=EDGE_LOOP('',(#1046,#1047,#1048,#1049));
#1051=FACE_OUTER_BOUND('',#1050,.F.);
#1052=ADVANCED_FACE('',(#1051),#1045,.T.);
#1053=CARTESIAN_POINT('',(8.15E-1,1.E0,-1.2E0));
#1054=DIRECTION('',(0.E0,0.E0,-1.E0));
#1055=DIRECTION('',(-1.E0,0.E0,0.E0));
#1056=AXIS2_PLACEMENT_3D('',#1053,#1054,#1055);
#1057=PLANE('',#1056);
#1058=ORIENTED_EDGE('',*,*,#616,.F.);
#1060=ORIENTED_EDGE('',*,*,#1059,.T.);
#1062=ORIENTED_EDGE('',*,*,#1061,.T.);
#1064=ORIENTED_EDGE('',*,*,#1063,.F.);
#1065=EDGE_LOOP('',(#1058,#1060,#1062,#1064));
#1066=FACE_OUTER_BOUND('',#1065,.F.);
#1067=ADVANCED_FACE('',(#1066),#1057,.T.);
#1068=CARTESIAN_POINT('',(1.103675134595E0,1.E0,-7.E-1));
#1069=DIRECTION('',(8.660254037844E-1,0.E0,-5.E-1));
#1070=DIRECTION('',(-5.E-1,0.E0,-8.660254037844E-1));
#1071=AXIS2_PLACEMENT_3D('',#1068,#1069,#1070);
#1072=PLANE('',#1071);
#1073=ORIENTED_EDGE('',*,*,#622,.F.);
#1075=ORIENTED_EDGE('',*,*,#1074,.T.);
#1077=ORIENTED_EDGE('',*,*,#1076,.T.);
#1078=ORIENTED_EDGE('',*,*,#1059,.F.);
#1079=EDGE_LOOP('',(#1073,#1075,#1077,#1078));
#1080=FACE_OUTER_BOUND('',#1079,.F.);
#1081=ADVANCED_FACE('',(#1080),#1072,.T.);
#1082=CARTESIAN_POINT('',(4.686751345948E-1,1.E0,-7.E-1));
#1083=DIRECTION('',(0.E0,0.E0,1.E0));
#1084=DIRECTION('',(1.E0,0.E0,0.E0));
#1085=AXIS2_PLACEMENT_3D('',#1082,#1083,#1084);
#1086=PLANE('',#1085);
#1087=ORIENTED_EDGE('',*,*,#620,.F.);
#1089=ORIENTED_EDGE('',*,*,#1088,.T.);
#1091=ORIENTED_EDGE('',*,*,#1090,.T.);
#1092=ORIENTED_EDGE('',*,*,#1074,.F.);
#1093=EDGE_LOOP('',(#1087,#1089,#1091,#1092));
#1094=FACE_OUTER_BOUND('',#1093,.F.);
#1095=ADVANCED_FACE('',(#1094),#1086,.T.);
#1096=CARTESIAN_POINT('',(1.8E-1,1.E0,-1.2E0));
#1097=DIRECTION('',(-8.660254037844E-1,0.E0,5.E-1));
#1098=DIRECTION('',(5.E-1,0.E0,8.660254037844E-1));
#1099=AXIS2_PLACEMENT_3D('',#1096,#1097,#1098);
#1100=PLANE('',#1099);
#1101=ORIENTED_EDGE('',*,*,#618,.F.);
#1102=ORIENTED_EDGE('',*,*,#1063,.T.);
#1104=ORIENTED_EDGE('',*,*,#1103,.T.);
#1105=ORIENTED_EDGE('',*,*,#1088,.F.);
#1106=EDGE_LOOP('',(#1101,#1102,#1104,#1105));
#1107=FACE_OUTER_BOUND('',#1106,.F.);
#1108=ADVANCED_FACE('',(#1107),#1100,.T.);
#1109=CARTESIAN_POINT('',(0.E0,1.5E0,0.E0));
#1110=DIRECTION('',(0.E0,1.E0,0.E0));
#1111=DIRECTION('',(1.E0,0.E0,0.E0));
#1112=AXIS2_PLACEMENT_3D('',#1109,#1110,#1111);
#1113=PLANE('',#1112);
#1114=ORIENTED_EDGE('',*,*,#1061,.F.);
#1115=ORIENTED_EDGE('',*,*,#1076,.F.);
#1116=ORIENTED_EDGE('',*,*,#1090,.F.);
#1117=ORIENTED_EDGE('',*,*,#1103,.F.);
#1118=EDGE_LOOP('',(#1114,#1115,#1116,#1117));
#1119=FACE_OUTER_BOUND('',#1118,.F.);
#1120=ADVANCED_FACE('',(#1119),#1113,.T.);
#1121=CARTESIAN_POINT('',(0.E0,1.5E0,0.E0));
#1122=DIRECTION('',(0.E0,1.E0,0.E0));
#1123=DIRECTION('',(1.E0,0.E0,0.E0));
#1124=AXIS2_PLACEMENT_3D('',#1121,#1122,#1123);
#1125=PLANE('',#1124);
#1127=ORIENTED_EDGE('',*,*,#1126,.F.);
#1129=ORIENTED_EDGE('',*,*,#1128,.F.);
#1131=ORIENTED_EDGE('',*,*,#1130,.F.);
#1133=ORIENTED_EDGE('',*,*,#1132,.F.);
#1134=EDGE_LOOP('',(#1127,#1129,#1131,#1133));
#1135=FACE_OUTER_BOUND('',#1134,.F.);
#1136=ADVANCED_FACE('',(#1135),#1125,.T.);
#1137=CARTESIAN_POINT('',(0.E0,1.5E0,0.E0));
#1138=DIRECTION('',(0.E0,1.E0,0.E0));
#1139=DIRECTION('',(1.E0,0.E0,0.E0));
#1140=AXIS2_PLACEMENT_3D('',#1137,#1138,#1139);
#1141=PLANE('',#1140);
#1143=ORIENTED_EDGE('',*,*,#1142,.F.);
#1145=ORIENTED_EDGE('',*,*,#1144,.F.);
#1147=ORIENTED_EDGE('',*,*,#1146,.F.);
#1149=ORIENTED_EDGE('',*,*,#1148,.F.);
#1150=EDGE_LOOP('',(#1143,#1145,#1147,#1149));
#1151=FACE_OUTER_BOUND('',#1150,.F.);
#1152=ADVANCED_FACE('',(#1151),#1141,.T.);
#1153=CARTESIAN_POINT('',(0.E0,1.5E0,0.E0));
#1154=DIRECTION('',(0.E0,1.E0,0.E0));
#1155=DIRECTION('',(1.E0,0.E0,0.E0));
#1156=AXIS2_PLACEMENT_3D('',#1153,#1154,#1155);
#1157=PLANE('',#1156);
#1159=ORIENTED_EDGE('',*,*,#1158,.F.);
#1161=ORIENTED_EDGE('',*,*,#1160,.F.);
#1163=ORIENTED_EDGE('',*,*,#1162,.F.);
#1165=ORIENTED_EDGE('',*,*,#1164,.F.);
#1166=EDGE_LOOP('',(#1159,#1161,#1163,#1165));
#1167=FACE_OUTER_BOUND('',#1166,.F.);
#1168=ADVANCED_FACE('',(#1167),#1157,.T.);
#1169=CARTESIAN_POINT('',(-8.15E-1,1.E0,-1.2E0));
#1170=DIRECTION('',(-8.660254037844E-1,0.E0,-5.E-1));
#1171=DIRECTION('',(-5.E-1,0.E0,8.660254037844E-1));
#1172=AXIS2_PLACEMENT_3D('',#1169,#1170,#1171);
#1173=PLANE('',#1172);
#1174=ORIENTED_EDGE('',*,*,#626,.F.);
#1176=ORIENTED_EDGE('',*,*,#1175,.T.);
#1177=ORIENTED_EDGE('',*,*,#1126,.T.);
#1179=ORIENTED_EDGE('',*,*,#1178,.F.);
#1180=EDGE_LOOP('',(#1174,#1176,#1177,#1179));
#1181=FACE_OUTER_BOUND('',#1180,.F.);
#1182=ADVANCED_FACE('',(#1181),#1173,.T.);
#1183=CARTESIAN_POINT('',(-1.8E-1,1.E0,-1.2E0));
#1184=DIRECTION('',(0.E0,0.E0,-1.E0));
#1185=DIRECTION('',(-1.E0,0.E0,0.E0));
#1186=AXIS2_PLACEMENT_3D('',#1183,#1184,#1185);
#1187=PLANE('',#1186);
#1188=ORIENTED_EDGE('',*,*,#632,.F.);
#1190=ORIENTED_EDGE('',*,*,#1189,.T.);
#1191=ORIENTED_EDGE('',*,*,#1128,.T.);
#1192=ORIENTED_EDGE('',*,*,#1175,.F.);
#1193=EDGE_LOOP('',(#1188,#1190,#1191,#1192));
#1194=FACE_OUTER_BOUND('',#1193,.F.);
#1195=ADVANCED_FACE('',(#1194),#1187,.T.);
#1196=CARTESIAN_POINT('',(-4.686751345948E-1,1.E0,-7.E-1));
#1197=DIRECTION('',(8.660254037844E-1,0.E0,5.E-1));
#1198=DIRECTION('',(5.E-1,0.E0,-8.660254037844E-1));
#1199=AXIS2_PLACEMENT_3D('',#1196,#1197,#1198);
#1200=PLANE('',#1199);
#1201=ORIENTED_EDGE('',*,*,#630,.F.);
#1203=ORIENTED_EDGE('',*,*,#1202,.T.);
#1204=ORIENTED_EDGE('',*,*,#1130,.T.);
#1205=ORIENTED_EDGE('',*,*,#1189,.F.);
#1206=EDGE_LOOP('',(#1201,#1203,#1204,#1205));
#1207=FACE_OUTER_BOUND('',#1206,.F.);
#1208=ADVANCED_FACE('',(#1207),#1200,.T.);
#1209=CARTESIAN_POINT('',(-1.103675134595E0,1.E0,-7.E-1));
#1210=DIRECTION('',(0.E0,0.E0,1.E0));
#1211=DIRECTION('',(1.E0,0.E0,0.E0));
#1212=AXIS2_PLACEMENT_3D('',#1209,#1210,#1211);
#1213=PLANE('',#1212);
#1214=ORIENTED_EDGE('',*,*,#628,.F.);
#1215=ORIENTED_EDGE('',*,*,#1178,.T.);
#1216=ORIENTED_EDGE('',*,*,#1132,.T.);
#1217=ORIENTED_EDGE('',*,*,#1202,.F.);
#1218=EDGE_LOOP('',(#1214,#1215,#1216,#1217));
#1219=FACE_OUTER_BOUND('',#1218,.F.);
#1220=ADVANCED_FACE('',(#1219),#1213,.T.);
#1221=CARTESIAN_POINT('',(8.15E-1,1.E0,1.2E0));
#1222=DIRECTION('',(8.660254037844E-1,0.E0,5.E-1));
#1223=DIRECTION('',(5.E-1,0.E0,-8.660254037844E-1));
#1224=AXIS2_PLACEMENT_3D('',#1221,#1222,#1223);
#1225=PLANE('',#1224);
#1226=ORIENTED_EDGE('',*,*,#636,.F.);
#1228=ORIENTED_EDGE('',*,*,#1227,.T.);
#1229=ORIENTED_EDGE('',*,*,#1142,.T.);
#1231=ORIENTED_EDGE('',*,*,#1230,.F.);
#1232=EDGE_LOOP('',(#1226,#1228,#1229,#1231));
#1233=FACE_OUTER_BOUND('',#1232,.F.);
#1234=ADVANCED_FACE('',(#1233),#1225,.T.);
#1235=CARTESIAN_POINT('',(1.8E-1,1.E0,1.2E0));
#1236=DIRECTION('',(0.E0,0.E0,1.E0));
#1237=DIRECTION('',(1.E0,0.E0,0.E0));
#1238=AXIS2_PLACEMENT_3D('',#1235,#1236,#1237);
#1239=PLANE('',#1238);
#1240=ORIENTED_EDGE('',*,*,#642,.F.);
#1242=ORIENTED_EDGE('',*,*,#1241,.T.);
#1243=ORIENTED_EDGE('',*,*,#1144,.T.);
#1244=ORIENTED_EDGE('',*,*,#1227,.F.);
#1245=EDGE_LOOP('',(#1240,#1242,#1243,#1244));
#1246=FACE_OUTER_BOUND('',#1245,.F.);
#1247=ADVANCED_FACE('',(#1246),#1239,.T.);
#1248=CARTESIAN_POINT('',(4.686751345948E-1,1.E0,7.E-1));
#1249=DIRECTION('',(-8.660254037844E-1,0.E0,-5.E-1));
#1250=DIRECTION('',(-5.E-1,0.E0,8.660254037844E-1));
#1251=AXIS2_PLACEMENT_3D('',#1248,#1249,#1250);
#1252=PLANE('',#1251);
#1253=ORIENTED_EDGE('',*,*,#640,.F.);
#1255=ORIENTED_EDGE('',*,*,#1254,.T.);
#1256=ORIENTED_EDGE('',*,*,#1146,.T.);
#1257=ORIENTED_EDGE('',*,*,#1241,.F.);
#1258=EDGE_LOOP('',(#1253,#1255,#1256,#1257));
#1259=FACE_OUTER_BOUND('',#1258,.F.);
#1260=ADVANCED_FACE('',(#1259),#1252,.T.);
#1261=CARTESIAN_POINT('',(1.103675134595E0,1.E0,7.E-1));
#1262=DIRECTION('',(0.E0,0.E0,-1.E0));
#1263=DIRECTION('',(-1.E0,0.E0,0.E0));
#1264=AXIS2_PLACEMENT_3D('',#1261,#1262,#1263);
#1265=PLANE('',#1264);
#1266=ORIENTED_EDGE('',*,*,#638,.F.);
#1267=ORIENTED_EDGE('',*,*,#1230,.T.);
#1268=ORIENTED_EDGE('',*,*,#1148,.T.);
#1269=ORIENTED_EDGE('',*,*,#1254,.F.);
#1270=EDGE_LOOP('',(#1266,#1267,#1268,#1269));
#1271=FACE_OUTER_BOUND('',#1270,.F.);
#1272=ADVANCED_FACE('',(#1271),#1265,.T.);
#1273=CARTESIAN_POINT('',(-8.15E-1,1.E0,1.2E0));
#1274=DIRECTION('',(0.E0,0.E0,1.E0));
#1275=DIRECTION('',(1.E0,0.E0,0.E0));
#1276=AXIS2_PLACEMENT_3D('',#1273,#1274,#1275);
#1277=PLANE('',#1276);
#1278=ORIENTED_EDGE('',*,*,#646,.F.);
#1280=ORIENTED_EDGE('',*,*,#1279,.T.);
#1281=ORIENTED_EDGE('',*,*,#1158,.T.);
#1283=ORIENTED_EDGE('',*,*,#1282,.F.);
#1284=EDGE_LOOP('',(#1278,#1280,#1281,#1283));
#1285=FACE_OUTER_BOUND('',#1284,.F.);
#1286=ADVANCED_FACE('',(#1285),#1277,.T.);
#1287=CARTESIAN_POINT('',(-1.103675134595E0,1.E0,7.E-1));
#1288=DIRECTION('',(-8.660254037844E-1,0.E0,5.E-1));
#1289=DIRECTION('',(5.E-1,0.E0,8.660254037844E-1));
#1290=AXIS2_PLACEMENT_3D('',#1287,#1288,#1289);
#1291=PLANE('',#1290);
#1292=ORIENTED_EDGE('',*,*,#652,.F.);
#1294=ORIENTED_EDGE('',*,*,#1293,.T.);
#1295=ORIENTED_EDGE('',*,*,#1160,.T.);
#1296=ORIENTED_EDGE('',*,*,#1279,.F.);
#1297=EDGE_LOOP('',(#1292,#1294,#1295,#1296));
#1298=FACE_OUTER_BOUND('',#1297,.F.);
#1299=ADVANCED_FACE('',(#1298),#1291,.T.);
#1300=CARTESIAN_POINT('',(-4.686751345948E-1,1.E0,7.E-1));
#1301=DIRECTION('',(0.E0,0.E0,-1.E0));
#1302=DIRECTION('',(-1.E0,0.E0,0.E0));
#1303=AXIS2_PLACEMENT_3D('',#1300,#1301,#1302);
#1304=PLANE('',#1303);
#1305=ORIENTED_EDGE('',*,*,#650,.F.);
#1307=ORIENTED_EDGE('',*,*,#1306,.T.);
#1308=ORIENTED_EDGE('',*,*,#1162,.T.);
#1309=ORIENTED_EDGE('',*,*,#1293,.F.);
#1310=EDGE_LOOP('',(#1305,#1307,#1308,#1309));
#1311=FACE_OUTER_BOUND('',#1310,.F.);
#1312=ADVANCED_FACE('',(#1311),#1304,.T.);
#1313=CARTESIAN_POINT('',(-1.8E-1,1.E0,1.2E0));
#1314=DIRECTION('',(8.660254037844E-1,0.E0,-5.E-1));
#1315=DIRECTION('',(-5.E-1,0.E0,-8.660254037844E-1));
#1316=AXIS2_PLACEMENT_3D('',#1313,#1314,#1315);
#1317=PLANE('',#1316);
#1318=ORIENTED_EDGE('',*,*,#648,.F.);
#1319=ORIENTED_EDGE('',*,*,#1282,.T.);
#1320=ORIENTED_EDGE('',*,*,#1164,.T.);
#1321=ORIENTED_EDGE('',*,*,#1306,.F.);
#1322=EDGE_LOOP('',(#1318,#1319,#1320,#1321));
#1323=FACE_OUTER_BOUND('',#1322,.F.);
#1324=ADVANCED_FACE('',(#1323),#1317,.T.);
#1325=CLOSED_SHELL('',(#666,#681,#695,#709,#723,#737,#751,#765,#778,#804,#819,
#834,#849,#864,#877,#891,#905,#919,#933,#946,#959,#971,#984,#999,#1014,#1027,
#1040,#1052,#1067,#1081,#1095,#1108,#1120,#1136,#1152,#1168,#1182,#1195,#1208,
#1220,#1234,#1247,#1260,#1272,#1286,#1299,#1312,#1324));
#1326=MANIFOLD_SOLID_BREP('',#1325);
#1327=CARTESIAN_POINT('',(0.E0,0.E0,0.E0));
#1328=DIRECTION('',(0.E0,0.E0,1.E0));
#1329=DIRECTION('',(1.E0,0.E0,0.E0));
#1330=AXIS2_PLACEMENT_3D('CSYS',#1327,#1328,#1329);
#1331=CARTESIAN_POINT('',(0.E0,-1.5E0,0.E0));
#1332=DIRECTION('',(0.E0,-1.E0,0.E0));
#1333=DIRECTION('',(1.E0,0.E0,0.E0));
#1334=AXIS2_PLACEMENT_3D('',#1331,#1332,#1333);
#1338=CARTESIAN_POINT('',(0.E0,-1.5E0,0.E0));
#1339=DIRECTION('',(0.E0,-1.E0,0.E0));
#1340=DIRECTION('',(-1.E0,0.E0,0.E0));
#1341=AXIS2_PLACEMENT_3D('',#1338,#1339,#1340);
#1348=DIMENSIONAL_EXPONENTS(0.E0,0.E0,0.E0,0.E0,0.E0,0.E0,0.E0);
#1350=PLANE_ANGLE_MEASURE_WITH_UNIT(PLANE_ANGLE_MEASURE(1.745329251994E-2),
#1349);
#1351=(CONVERSION_BASED_UNIT('DEGREE',#1350)NAMED_UNIT(*)PLANE_ANGLE_UNIT());
#1353=UNCERTAINTY_MEASURE_WITH_UNIT(LENGTH_MEASURE(1.262974771688E-3),#1347,
'closure',
'Maximum model space distance between geometric entities at asserted connectivities');
#1354=(GEOMETRIC_REPRESENTATION_CONTEXT(3)GLOBAL_UNCERTAINTY_ASSIGNED_CONTEXT((
#1353))GLOBAL_UNIT_ASSIGNED_CONTEXT((#1347,#1351,#1352))REPRESENTATION_CONTEXT(
'ID1','3'));
#1346=GEOMETRIC_SET('',(#1345));
#1358=SHAPE_REPRESENTATION_RELATIONSHIP('','',#1357,#1355);
#1359=SHAPE_REPRESENTATION_RELATIONSHIP('','',#1357,#1356);
#1360=APPLICATION_CONTEXT(
'CONFIGURATION CONTROLLED 3D DESIGNS OF MECHANICAL PARTS AND ASSEMBLIES');
#1361=APPLICATION_PROTOCOL_DEFINITION('international standard',
'config_control_design',1994,#1360);
#1362=DESIGN_CONTEXT('',#1360,'design');
#1363=MECHANICAL_CONTEXT('',#1360,'mechanical');
#1364=PRODUCT('901200761','901200761','NOT SPECIFIED',(#1363));
#1365=PRODUCT_DEFINITION_FORMATION_WITH_SPECIFIED_SOURCE('1','LAST_VERSION',
#1364,.MADE.);
#1369=PRODUCT_CATEGORY('part','');
#1370=PRODUCT_RELATED_PRODUCT_CATEGORY('detail','',(#1364));
#1371=PRODUCT_CATEGORY_RELATIONSHIP('','',#1369,#1370);
#1372=SECURITY_CLASSIFICATION_LEVEL('unclassified');
#1373=SECURITY_CLASSIFICATION('','',#1372);
#1374=CC_DESIGN_SECURITY_CLASSIFICATION(#1373,(#1365));
#1375=APPROVAL_STATUS('approved');
#1376=APPROVAL(#1375,'');
#1377=CC_DESIGN_APPROVAL(#1376,(#1373,#1365,#1366));
#1378=CALENDAR_DATE(114,20,1);
#1379=COORDINATED_UNIVERSAL_TIME_OFFSET(5,30,.AHEAD.);
#1380=LOCAL_TIME(13,21,1.1E1,#1379);
#1381=DATE_AND_TIME(#1378,#1380);
#1382=APPROVAL_DATE_TIME(#1381,#1376);
#1383=DATE_TIME_ROLE('creation_date');
#1384=CC_DESIGN_DATE_AND_TIME_ASSIGNMENT(#1381,#1383,(#1366));
#1385=DATE_TIME_ROLE('classification_date');
#1386=CC_DESIGN_DATE_AND_TIME_ASSIGNMENT(#1381,#1385,(#1373));
#1387=PERSON('UNSPECIFIED','UNSPECIFIED',$,$,$,$);
#1388=ORGANIZATION('UNSPECIFIED','UNSPECIFIED','UNSPECIFIED');
#1389=PERSON_AND_ORGANIZATION(#1387,#1388);
#1390=APPROVAL_ROLE('approver');
#1391=APPROVAL_PERSON_ORGANIZATION(#1389,#1376,#1390);
#1392=PERSON_AND_ORGANIZATION_ROLE('creator');
#1393=CC_DESIGN_PERSON_AND_ORGANIZATION_ASSIGNMENT(#1389,#1392,(#1365,#1366));
#1394=PERSON_AND_ORGANIZATION_ROLE('design_supplier');
#1395=CC_DESIGN_PERSON_AND_ORGANIZATION_ASSIGNMENT(#1389,#1394,(#1365));
#1396=PERSON_AND_ORGANIZATION_ROLE('classification_officer');
#1397=CC_DESIGN_PERSON_AND_ORGANIZATION_ASSIGNMENT(#1389,#1396,(#1373));
#1398=PERSON_AND_ORGANIZATION_ROLE('design_owner');
#1399=CC_DESIGN_PERSON_AND_ORGANIZATION_ASSIGNMENT(#1389,#1398,(#1364));
#598=EDGE_CURVE('',#451,#452,#4,.T.);
#600=EDGE_CURVE('',#452,#454,#8,.T.);
#602=EDGE_CURVE('',#454,#456,#12,.T.);
#604=EDGE_CURVE('',#456,#458,#16,.T.);
#606=EDGE_CURVE('',#458,#460,#20,.T.);
#608=EDGE_CURVE('',#460,#462,#24,.T.);
#610=EDGE_CURVE('',#462,#464,#28,.T.);
#612=EDGE_CURVE('',#464,#451,#32,.T.);
#616=EDGE_CURVE('',#491,#492,#36,.T.);
#618=EDGE_CURVE('',#492,#494,#40,.T.);
#620=EDGE_CURVE('',#494,#496,#44,.T.);
#622=EDGE_CURVE('',#496,#491,#48,.T.);
#626=EDGE_CURVE('',#539,#540,#52,.T.);
#628=EDGE_CURVE('',#540,#542,#56,.T.);
#630=EDGE_CURVE('',#542,#544,#60,.T.);
#632=EDGE_CURVE('',#544,#539,#64,.T.);
#636=EDGE_CURVE('',#547,#548,#68,.T.);
#638=EDGE_CURVE('',#548,#550,#72,.T.);
#640=EDGE_CURVE('',#550,#552,#76,.T.);
#642=EDGE_CURVE('',#552,#547,#80,.T.);
#646=EDGE_CURVE('',#555,#556,#84,.T.);
#648=EDGE_CURVE('',#556,#558,#88,.T.);
#650=EDGE_CURVE('',#558,#560,#92,.T.);
#652=EDGE_CURVE('',#560,#555,#96,.T.);
#656=EDGE_CURVE('',#499,#500,#100,.T.);
#658=EDGE_CURVE('',#499,#503,#104,.T.);
#660=EDGE_CURVE('',#503,#504,#108,.T.);
#662=EDGE_CURVE('',#500,#504,#112,.T.);
#673=EDGE_CURVE('',#451,#467,#116,.T.);
#675=EDGE_CURVE('',#467,#468,#148,.T.);
#677=EDGE_CURVE('',#452,#468,#144,.T.);
#688=EDGE_CURVE('',#464,#480,#120,.T.);
#690=EDGE_CURVE('',#480,#467,#152,.T.);
#702=EDGE_CURVE('',#462,#478,#124,.T.);
#704=EDGE_CURVE('',#478,#480,#156,.T.);
#716=EDGE_CURVE('',#460,#476,#128,.T.);
#718=EDGE_CURVE('',#476,#478,#160,.T.);
#730=EDGE_CURVE('',#458,#474,#132,.T.);
#732=EDGE_CURVE('',#474,#476,#164,.T.);
#744=EDGE_CURVE('',#456,#472,#136,.T.);
#746=EDGE_CURVE('',#472,#474,#168,.T.);
#758=EDGE_CURVE('',#454,#470,#140,.T.);
#760=EDGE_CURVE('',#470,#472,#172,.T.);
#773=EDGE_CURVE('',#468,#470,#176,.T.);
#794=EDGE_CURVE('',#507,#508,#180,.T.);
#796=EDGE_CURVE('',#508,#512,#184,.T.);
#798=EDGE_CURVE('',#511,#512,#188,.T.);
#800=EDGE_CURVE('',#507,#511,#192,.T.);
#810=EDGE_CURVE('',#564,#574,#196,.T.);
#812=EDGE_CURVE('',#564,#499,#200,.T.);
#815=EDGE_CURVE('',#500,#574,#204,.T.);
#825=EDGE_CURVE('',#590,#584,#208,.T.);
#827=EDGE_CURVE('',#590,#508,#212,.T.);
#830=EDGE_CURVE('',#507,#584,#216,.T.);
#841=EDGE_CURVE('',#576,#574,#220,.T.);
#843=EDGE_CURVE('',#568,#576,#268,.T.);
#845=EDGE_CURVE('',#568,#564,#280,.T.);
#855=EDGE_CURVE('',#572,#574,#228,.T.);
#857=EDGE_CURVE('',#570,#572,#224,.T.);
#859=EDGE_CURVE('',#570,#576,#272,.T.);
#873=EDGE_CURVE('',#504,#572,#240,.T.);
#883=EDGE_CURVE('',#588,#590,#232,.T.);
#885=EDGE_CURVE('',#588,#512,#256,.T.);
#897=EDGE_CURVE('',#572,#563,#236,.T.);
#901=EDGE_CURVE('',#563,#503,#244,.T.);
#911=EDGE_CURVE('',#583,#588,#248,.T.);
#913=EDGE_CURVE('',#511,#583,#252,.T.);
#925=EDGE_CURVE('',#570,#567,#276,.T.);
#929=EDGE_CURVE('',#567,#563,#260,.T.);
#939=EDGE_CURVE('',#567,#568,#264,.T.);
#952=EDGE_CURVE('',#563,#564,#284,.T.);
#977=EDGE_CURVE('',#583,#584,#288,.T.);
#990=EDGE_CURVE('',#579,#580,#300,.T.);
#992=EDGE_CURVE('',#584,#580,#292,.T.);
#995=EDGE_CURVE('',#579,#583,#296,.T.);
#1006=EDGE_CURVE('',#579,#586,#304,.T.);
#1008=EDGE_CURVE('',#586,#592,#308,.T.);
#1010=EDGE_CURVE('',#592,#580,#312,.T.);
#1023=EDGE_CURVE('',#588,#586,#320,.T.);
#1034=EDGE_CURVE('',#592,#590,#316,.T.);
#1059=EDGE_CURVE('',#491,#483,#324,.T.);
#1061=EDGE_CURVE('',#483,#484,#340,.T.);
#1063=EDGE_CURVE('',#492,#484,#336,.T.);
#1074=EDGE_CURVE('',#496,#488,#328,.T.);
#1076=EDGE_CURVE('',#488,#483,#344,.T.);
#1088=EDGE_CURVE('',#494,#486,#332,.T.);
#1090=EDGE_CURVE('',#486,#488,#348,.T.);
#1103=EDGE_CURVE('',#484,#486,#352,.T.);
#1126=EDGE_CURVE('',#515,#516,#356,.T.);
#1128=EDGE_CURVE('',#520,#515,#360,.T.);
#1130=EDGE_CURVE('',#518,#520,#364,.T.);
#1132=EDGE_CURVE('',#516,#518,#368,.T.);
#1142=EDGE_CURVE('',#523,#524,#372,.T.);
#1144=EDGE_CURVE('',#528,#523,#376,.T.);
#1146=EDGE_CURVE('',#526,#528,#380,.T.);
#1148=EDGE_CURVE('',#524,#526,#384,.T.);
#1158=EDGE_CURVE('',#531,#532,#388,.T.);
#1160=EDGE_CURVE('',#536,#531,#392,.T.);
#1162=EDGE_CURVE('',#534,#536,#396,.T.);
#1164=EDGE_CURVE('',#532,#534,#400,.T.);
#1175=EDGE_CURVE('',#539,#515,#404,.T.);
#1178=EDGE_CURVE('',#540,#516,#416,.T.);
#1189=EDGE_CURVE('',#544,#520,#408,.T.);
#1202=EDGE_CURVE('',#542,#518,#412,.T.);
#1227=EDGE_CURVE('',#547,#523,#420,.T.);
#1230=EDGE_CURVE('',#548,#524,#432,.T.);
#1241=EDGE_CURVE('',#552,#528,#424,.T.);
#1254=EDGE_CURVE('',#550,#526,#428,.T.);
#1279=EDGE_CURVE('',#555,#531,#436,.T.);
#1282=EDGE_CURVE('',#556,#532,#448,.T.);
#1293=EDGE_CURVE('',#560,#536,#440,.T.);
#1306=EDGE_CURVE('',#558,#534,#444,.T.);
#1335=CIRCLE('',#1334,5.E-1);
#1336=TRIMMED_CURVE('',#1335,(PARAMETER_VALUE(0.E0)),(PARAMETER_VALUE(1.8E2)),
.T.,.UNSPECIFIED.);
#1337=COMPOSITE_CURVE_SEGMENT(.CONTINUOUS.,.T.,#1336);
#1342=CIRCLE('',#1341,5.E-1);
#1343=TRIMMED_CURVE('',#1342,(PARAMETER_VALUE(0.E0)),(PARAMETER_VALUE(1.8E2)),
.T.,.UNSPECIFIED.);
#1344=COMPOSITE_CURVE_SEGMENT(.CONTINUOUS.,.T.,#1343);
#1345=COMPOSITE_CURVE('',(#1337,#1344),.F.);
#1347=(LENGTH_UNIT()NAMED_UNIT(*)SI_UNIT(.MILLI.,.METRE.));
#1349=(NAMED_UNIT(*)PLANE_ANGLE_UNIT()SI_UNIT($,.RADIAN.));
#1352=(NAMED_UNIT(*)SI_UNIT($,.STERADIAN.)SOLID_ANGLE_UNIT());
#1355=ADVANCED_BREP_SHAPE_REPRESENTATION('',(#1326),#1354);
#1356=GEOMETRICALLY_BOUNDED_SURFACE_SHAPE_REPRESENTATION('',(#1346),#1354);
#1357=SHAPE_REPRESENTATION('',(#1330),#1354);
#1366=PRODUCT_DEFINITION('design','',#1365,#1362);
#1367=PRODUCT_DEFINITION_SHAPE('','SHAPE FOR 901200761.',#1366);
#1368=SHAPE_DEFINITION_REPRESENTATION(#1367,#1357);
ENDSEC;
END-ISO-10303-21;
